<svg width="105" height="41" viewBox="0 0 105 41" fill="none" xmlns="http://www.w3.org/2000/svg">
<g id="Group">
<mask id="mask0_78_120" style="mask-type:alpha" maskUnits="userSpaceOnUse" x="0" y="0" width="105" height="41">
<g id="bg-mask">
<path id="Vector" d="M104.927 0.679993H0V40.68H104.927V0.679993Z" fill="white"/>
</g>
</mask>
<g mask="url(#mask0_78_120)">
<g id="Group_2">
<path id="&#229;&#136;&#134;&#231;&#187;&#132; 54" d="M24.4327 27.3429V12.9834H28.9825V27.3429H24.4327ZM74.9706 12.9834V21.0058C74.9706 23.1968 76.2831 24.4103 78.8205 24.4103C81.4454 24.4103 82.7578 23.1968 82.7578 21.0058V12.9834H87.3951V20.7362C87.3951 25.1856 84.3327 27.6463 78.8642 27.6463C73.3519 27.6463 70.3333 25.1856 70.3333 20.7362V12.9834H74.9706ZM97.2341 12.68C100.428 12.68 103.184 13.2193 105.065 13.9946L103.621 16.9272C102.134 16.2193 99.5527 15.7474 97.1466 15.7474C95.3529 15.7474 94.2592 16.1182 94.2592 16.8598C94.2592 17.8036 95.2216 17.871 99.509 18.68C103.534 19.4216 105.415 20.9047 105.415 23.1631C105.415 25.9946 102.615 27.68 97.8903 27.68C94.5217 27.68 91.1531 27.0733 88.9219 26.1631L90.3219 23.0957C92.5968 24.0395 95.1779 24.5115 97.759 24.5115C99.7277 24.5115 100.734 24.107 100.734 23.2643C100.734 22.489 99.9465 22.1182 96.3591 21.5115C91.7218 20.7362 89.7094 19.6575 89.7094 16.9946C89.7094 14.5339 92.4218 12.68 97.2341 12.68V12.68ZM14.7206 24.9497H7.0647L5.53351 27.3429H0.414978L9.90833 12.9834H13.9769L23.4703 27.3429H18.2205L11.877 17.5002H11.8333L8.98962 21.9159H12.8395L14.7206 24.9497ZM32.0362 27.3429V12.9834H41.7045C46.4731 12.9834 48.7917 15.0733 48.7917 17.8036C48.7917 20.298 47.1293 21.7137 44.4606 22.1856C44.4169 22.1856 48.7042 27.3429 48.7042 27.3429H43.5419L37.2859 19.6912H41.7045C43.5857 19.6912 44.3294 18.8822 44.3294 17.871C44.3294 16.9272 43.6294 16.0845 41.7483 16.0845H36.586V27.3429H32.0362ZM65.4073 19.8935C67.201 20.3654 68.4259 21.6463 68.4259 23.3317C68.4259 25.7586 65.8885 27.3429 62.0387 27.3429H50.9704V12.9834H61.6012C65.3635 12.9834 67.5947 14.5339 67.5947 16.8598C67.5947 18.3092 66.851 19.2867 65.4073 19.8935ZM61.5531 18.5519C61.9905 18.5519 62.428 18.4507 62.7343 18.1811C63.0405 17.9451 63.2155 17.6418 63.2155 17.3047C63.2155 16.9676 63.0405 16.6305 62.7343 16.3946C62.428 16.1586 62.0343 16.0238 61.5968 16.0238H55.5158V18.5519H61.5531ZM63.0842 23.9013C63.478 23.6317 63.653 23.2609 63.653 22.8564C63.653 22.0137 62.8218 21.407 61.6843 21.407H55.5158V24.3395H61.6843C62.2093 24.3395 62.7343 24.2047 63.0842 23.9013Z" fill="#7C7C7C"/>
</g>
</g>
</g>
</svg>
