<svg width="73" height="41" viewBox="0 0 73 41" fill="none" xmlns="http://www.w3.org/2000/svg">
<g id="Frame">
<g id="Group">
<path id="&#229;&#136;&#134;&#231;&#187;&#132; 119" d="M35.0943 17.4626V14.5534C35.1244 13.8451 35.8184 13.2886 36.6632 13.2886C37.508 13.2886 38.202 13.8451 38.2321 14.5534V17.4626C38.1416 18.1456 37.4778 18.6516 36.6632 18.6516C35.8486 18.6516 35.1848 18.1456 35.0943 17.4626ZM0.414978 17.4626V14.5534C0.44515 13.8451 1.1391 13.2886 1.9839 13.2886C2.82871 13.2886 3.52266 13.8451 3.55283 14.5534V17.4626C3.49249 18.1456 2.79854 18.6769 1.9839 18.6769C1.16927 18.6769 0.475321 18.1456 0.414978 17.4626ZM69.6921 17.4626V14.5534C69.7223 13.8451 70.4162 13.2886 71.261 13.2886C72.1058 13.2886 72.7998 13.8451 72.83 14.5534V17.4626C72.7998 18.1709 72.1058 18.7275 71.261 18.7275C70.4162 18.7275 69.7223 18.1709 69.6921 17.4626ZM61.1113 17.4739V10.922C61.1716 10.2137 61.8656 9.68242 62.6802 9.68242C63.525 9.68242 64.1888 10.2137 64.2491 10.922V17.4739C64.1888 18.1569 63.4949 18.6882 62.6802 18.6882C61.8656 18.6882 61.1716 18.1569 61.1113 17.4739ZM9.09235 17.4778V10.9258C9.12252 10.2175 9.81646 9.66099 10.6613 9.66099C11.5061 9.66099 12.2 10.2175 12.2302 10.9258V17.4778C12.1699 18.1608 11.4759 18.6668 10.6613 18.6668C9.84664 18.6668 9.15269 18.1608 9.09235 17.4778ZM43.841 10.9258C43.8712 10.2175 44.5652 9.66099 45.41 9.66099C46.2548 9.66099 46.9487 10.2175 46.9789 10.9258V17.4778C46.9185 18.1608 46.2548 18.692 45.41 18.692C44.5652 18.692 43.9014 18.1608 43.841 17.4778V10.9258ZM26.435 17.4778V10.9258C26.4652 10.2175 27.1591 9.66099 28.0039 9.66099C28.8487 9.66099 29.5427 10.2175 29.5729 10.9258V17.4778C29.5427 18.1608 28.8487 18.7173 28.0039 18.7173C27.1591 18.7173 26.4652 18.1608 26.435 17.4778ZM20.8864 36.4891V25.9402H24.0545V36.4891H20.8864ZM52.4038 20.1112V5.94485C52.4339 5.23653 53.1279 4.67999 53.9727 4.67999C54.8175 4.67999 55.5114 5.23653 55.5416 5.94485V20.1112C55.4813 20.7942 54.7873 21.3255 53.9727 21.3255C53.158 21.3255 52.4641 20.7942 52.4038 20.1112ZM17.7245 20.1112V5.94485C17.7546 5.23653 18.4486 4.67999 19.2934 4.67999C20.1382 4.67999 20.8321 5.23653 20.8623 5.94485V20.1112C20.8321 20.8195 20.1382 21.3761 19.2934 21.3761C18.4486 21.3761 17.7546 20.8195 17.7245 20.1112ZM49.6774 33.4978V36.3057L49.436 36.3563C47.9878 36.7358 46.449 36.7864 44.9405 36.4828C43.5526 36.2045 42.2854 35.5215 41.4104 34.5855C39.6001 32.5365 39.6604 29.7285 41.5311 27.73C42.1345 27.1229 42.8888 26.6169 43.7638 26.2881C44.6086 25.9592 45.5439 25.7821 46.4792 25.7568C47.5051 25.7315 48.5611 25.8327 49.5266 26.111L49.6774 26.1363V28.9696L49.6171 28.919C48.6214 28.4889 47.5051 28.3118 46.4189 28.4383C45.7853 28.4889 45.212 28.6913 44.7293 29.0455C44.1862 29.3996 43.7939 29.9056 43.6431 30.4874C43.462 31.0439 43.4922 31.6258 43.7034 32.157C43.9146 32.6629 44.2767 33.093 44.7594 33.4219C45.4836 33.8772 46.3284 34.0796 47.2033 34.029C48.0481 34.0037 48.8628 33.8266 49.6171 33.523L49.6774 33.4978ZM16.5015 28.9696L16.4411 28.919C15.4455 28.4889 14.3291 28.3118 13.2429 28.4383C12.6093 28.4889 12.0361 28.6913 11.5533 29.0455C11.0102 29.3996 10.618 29.9056 10.4671 30.4874C10.3163 31.0439 10.3163 31.6258 10.5275 32.157C10.7387 32.6629 11.1008 33.093 11.6137 33.4219C12.3076 33.8772 13.1524 34.0796 14.0274 34.029C14.8722 34.0037 15.6868 33.8266 16.4411 33.523L16.5015 33.4978V36.3057L16.2601 36.3563C14.8119 36.7358 13.2731 36.7864 11.7645 36.4828C10.3766 36.2045 9.10942 35.5215 8.23444 34.5855C6.42415 32.5365 6.48449 29.7285 8.35513 27.73C8.95856 27.1229 9.71286 26.6169 10.5878 26.2881C11.4326 25.9592 12.368 25.7821 13.3033 25.7568C14.3291 25.7315 15.3851 25.8327 16.3506 26.111L16.5015 26.1363V28.9696ZM34.2182 25.7909C34.7914 25.8668 35.3345 25.9426 35.8776 26.0438L36.0888 26.0944V28.3206L35.9681 28.2953C35.425 28.1941 34.9121 28.1182 34.369 28.0676C33.8863 27.9917 33.4337 27.9917 32.9811 28.0423C32.7096 28.0676 32.438 28.1435 32.1966 28.2194C31.9854 28.3206 31.8346 28.4471 31.7139 28.5988C31.6234 28.7506 31.5932 28.953 31.7139 29.1554C31.8346 29.3578 32.0458 29.5348 32.2872 29.6107L34.4897 30.2937C34.9724 30.4455 35.425 30.6479 35.7871 30.9515C36.1793 31.2297 36.5112 31.5839 36.6922 31.9887C37.0845 32.7729 37.0845 33.633 36.7224 34.4172C36.5112 34.8978 36.1793 35.3026 35.7267 35.6314C35.2138 35.9856 34.6104 36.2386 33.9768 36.3903C33.4639 36.5421 32.8906 36.618 32.3173 36.6686C31.7441 36.6939 31.1406 36.6686 30.5674 36.6433C29.8734 36.5927 29.2097 36.5168 28.5459 36.4156L28.3347 36.3903L28.3649 33.9618L28.4554 33.9871C28.7269 34.0377 29.0286 34.0883 29.3303 34.1389C29.8734 34.2401 30.4467 34.2907 30.9898 34.3413C31.4424 34.3666 31.8648 34.3413 32.2872 34.2907C32.5889 34.2401 32.8604 34.1895 33.132 34.063C33.3432 33.9618 33.5242 33.7847 33.6147 33.5571C33.6449 33.4306 33.6449 33.2788 33.6147 33.1523C33.5544 33.0258 33.4337 32.8741 33.313 32.7729C33.132 32.6211 32.8906 32.4946 32.6191 32.4187L32.5587 32.3934L32.2872 32.3175C32.1363 32.2669 31.9553 32.2163 31.7742 32.191C31.2613 32.0645 30.7484 31.9128 30.2958 31.6851C29.9338 31.5333 29.6019 31.3309 29.3002 31.1033C28.9683 30.825 28.6967 30.4961 28.5459 30.1167C28.214 29.3831 28.214 28.5988 28.5459 27.8652C28.7571 27.3593 29.1191 26.9545 29.6019 26.6257C30.326 26.145 31.1708 25.8668 32.076 25.7909C32.8001 25.715 33.5242 25.715 34.2182 25.7909ZM52.98 31.2152C53.0404 29.2168 54.3679 27.3954 56.4498 26.4341C58.5618 25.4728 61.0962 25.5234 63.1479 26.5859C65.4409 27.7495 66.6478 29.9757 66.165 32.1765C65.7125 34.3774 63.6608 36.1229 61.0359 36.5529C59.0747 36.9071 57.0532 36.5023 55.4843 35.4905C53.9455 34.4533 53.0102 32.8849 52.98 31.2152ZM57.1108 32.9095C58.2271 34.0985 60.2788 34.3008 61.6969 33.3901L61.7572 33.3648C62.4511 32.8842 62.8736 32.2265 62.9641 31.4929C63.0546 30.7592 62.783 30.0256 62.2399 29.4438C61.6667 28.8873 60.8822 28.5331 60.0072 28.4572C59.1323 28.3813 58.2573 28.5837 57.5935 29.0643C56.2056 30.0256 55.9944 31.7458 57.1108 32.9095Z" fill="#7C7C7C"/>
</g>
<mask id="mask0_78_110" style="mask-type:alpha" maskUnits="userSpaceOnUse" x="0" y="21" width="40" height="22">
<g id="bg-mask">
<path id="Vector" d="M40 21.7628H0V42.8488H40V21.7628Z" fill="white"/>
</g>
</mask>
<g mask="url(#mask0_78_110)">
</g>
</g>
</svg>
