<svg width="41" height="41" viewBox="0 0 41 41" fill="none" xmlns="http://www.w3.org/2000/svg">
<g id="Group">
<mask id="mask0_78_141" style="mask-type:alpha" maskUnits="userSpaceOnUse" x="0" y="0" width="41" height="41">
<g id="bg-mask">
<path id="Vector" d="M40.9271 0.679993H0.927124V40.68H40.9271V0.679993Z" fill="white"/>
</g>
</mask>
<g mask="url(#mask0_78_141)">
<g id="Group_2">
<g id="Group_3">
<path id="&#232;&#183;&#175;&#229;&#190;&#132; 1" d="M39.7459 15.3967C39.4125 14.6467 37.9625 14.3967 36.1959 14.08C33.0792 13.5134 27.5125 13.2967 25.6125 16.53C24.1459 19.0134 26.9292 22.43 29.4625 25.73C31.4792 28.38 33.6792 30.9134 32.7792 32.3967C32.0459 33.5967 27.3459 33.5967 25.7125 33.6967C23.7459 33.8134 20.9125 33.8134 20.4125 34.1134C19.9625 34.38 19.7125 35.1967 21.3792 35.53C22.7292 35.7967 25.9125 36.3467 29.2792 36.33C32.7959 36.33 36.4959 35.6967 37.2959 32.68C37.9292 30.2634 35.6959 27.68 33.7459 25.0467C31.5959 22.18 29.4125 20.1134 29.5959 18.08C29.7459 16.4967 32.5459 16.4134 37.2125 16.3134C38.1792 16.2967 40.1125 16.2467 39.7459 15.3967Z" fill="#7C7C7C"/>
<path id="&#232;&#183;&#175;&#229;&#190;&#132; 1_2" d="M10.7434 21.693C13.6268 21.693 18.2101 21.893 18.9268 23.9763C20.4934 28.443 9.94342 36.4597 7.69342 35.693C6.67675 35.343 9.76009 29.5097 10.8768 27.4096C11.5434 26.1597 12.5601 24.193 11.6934 24.0596C10.7268 23.9096 9.66009 25.7596 8.97675 26.8263C7.09342 29.7263 5.17675 32.893 3.64342 36.143C3.16009 37.143 1.57675 40.1763 2.12675 40.5597C2.62675 40.9263 5.04342 40.4097 8.11009 39.0597C17.7434 34.793 22.0768 29.243 23.2434 24.6596C23.6601 23.043 22.9434 21.643 21.9434 20.8763C19.9434 19.343 16.3434 18.8263 13.3934 18.993C10.7601 19.143 6.24342 20.0763 6.41009 21.0096C6.57675 22.0096 9.44342 21.693 10.7434 21.693Z" fill="#7C7C7C"/>
<path id="&#232;&#183;&#175;&#229;&#190;&#132; 1_3" d="M14.347 2.44826C14.5803 3.26493 16.897 3.04826 17.7803 3.04826C21.047 3.04826 24.1803 3.69826 24.9303 4.61493C26.097 6.04826 24.0803 9.59826 17.897 14.4316C16.7136 15.3483 15.8303 16.1983 15.6303 16.6316C15.5303 16.8483 15.5803 17.1649 15.897 17.2149C16.2303 17.2649 17.047 17.0649 18.397 16.3649C23.897 13.5316 30.197 7.71493 28.947 3.73159C28.197 1.31493 24.1303 0.581592 20.6803 0.731592C17.2636 0.898259 14.147 1.76493 14.347 2.44826Z" fill="#7C7C7C"/>
</g>
</g>
</g>
</g>
</svg>
