<svg width="12" height="11" viewBox="0 0 12 11" fill="none" xmlns="http://www.w3.org/2000/svg">
<g id="Frame">
<path id="Vector" d="M5.99525 0.916504C3.46525 0.916504 1.4165 2.96984 1.4165 5.49984C1.4165 8.02984 3.46525 10.0832 5.99525 10.0832C8.52984 10.0832 10.5832 8.02984 10.5832 5.49984C10.5832 2.96984 8.52984 0.916504 5.99525 0.916504ZM5.99984 9.1665C3.974 9.1665 2.33317 7.52567 2.33317 5.49984C2.33317 3.474 3.974 1.83317 5.99984 1.83317C8.02567 1.83317 9.6665 3.474 9.6665 5.49984C9.6665 7.52567 8.02567 9.1665 5.99984 9.1665Z" fill="#7F7979"/>
<path id="Vector_2" d="M6.229 3.2085H5.5415V5.9585L7.94775 7.40225L8.2915 6.8385L6.229 5.61475V3.2085Z" fill="#7F7979"/>
</g>
</svg>
