<svg width="12" height="11" viewBox="0 0 12 11" fill="none" xmlns="http://www.w3.org/2000/svg">
<g id="Frame">
<path id="Vector" d="M6 2.75C5.66006 2.75 5.32776 2.8508 5.04511 3.03966C4.76247 3.22852 4.54217 3.49695 4.41208 3.81101C4.28199 4.12507 4.24796 4.47066 4.31428 4.80406C4.38059 5.13747 4.54429 5.44372 4.78466 5.68409C5.02503 5.92446 5.33128 6.08816 5.66469 6.15447C5.99809 6.22079 6.34368 6.18676 6.65774 6.05667C6.9718 5.92658 7.24023 5.70628 7.42909 5.42364C7.61795 5.14099 7.71875 4.80869 7.71875 4.46875C7.71875 4.01291 7.53767 3.57574 7.21534 3.25341C6.89301 2.93108 6.45584 2.75 6 2.75ZM6 5.5C5.79604 5.5 5.59666 5.43952 5.42707 5.3262C5.25748 5.21289 5.1253 5.05183 5.04725 4.86339C4.9692 4.67496 4.94877 4.46761 4.98856 4.26756C5.02836 4.06752 5.12657 3.88377 5.2708 3.73955C5.41502 3.59532 5.59877 3.49711 5.79881 3.45731C5.99886 3.41752 6.20621 3.43795 6.39464 3.516C6.58308 3.59405 6.74414 3.72623 6.85745 3.89582C6.97077 4.06541 7.03125 4.26479 7.03125 4.46875C7.03125 4.74225 6.9226 5.00456 6.7292 5.19795C6.53581 5.39135 6.2735 5.5 6 5.5ZM6 0.6875C4.9975 0.688637 4.03638 1.08738 3.32751 1.79626C2.61863 2.50513 2.21989 3.46625 2.21875 4.46875C2.21875 5.81797 2.84223 7.24797 4.02344 8.60449C4.5542 9.21747 5.15156 9.76943 5.80449 10.2502C5.86229 10.2907 5.93115 10.3124 6.00172 10.3124C6.07229 10.3124 6.14115 10.2907 6.19895 10.2502C6.85067 9.76923 7.44688 9.21727 7.97656 8.60449C9.15605 7.24797 9.78125 5.81797 9.78125 4.46875C9.78011 3.46625 9.38137 2.50513 8.67249 1.79626C7.96362 1.08738 7.0025 0.688637 6 0.6875ZM6 9.53906C5.28973 8.98047 2.90625 6.92871 2.90625 4.46875C2.90625 3.64824 3.2322 2.86133 3.81239 2.28114C4.39258 1.70095 5.17949 1.375 6 1.375C6.82051 1.375 7.60742 1.70095 8.18761 2.28114C8.7678 2.86133 9.09375 3.64824 9.09375 4.46875C9.09375 6.92785 6.71027 8.98047 6 9.53906Z" fill="#7F7979"/>
</g>
</svg>
