<svg width="17" height="16" viewBox="0 0 17 16" fill="none" xmlns="http://www.w3.org/2000/svg">
<g id="Frame">
<g id="Group">
<path id="Vector" d="M6.72852 2H10.2702C10.552 2 10.8222 2.10536 11.0215 2.29289C11.2207 2.48043 11.3327 2.73478 11.3327 3C11.3327 3.61884 11.0715 4.21233 10.6066 4.64992C10.1416 5.0875 9.51103 5.33333 8.85352 5.33333H8.14518C7.48767 5.33333 6.85708 5.0875 6.39215 4.64992C5.92721 4.21233 5.66602 3.61884 5.66602 3C5.66602 2.73478 5.77796 2.48043 5.97721 2.29289C6.17647 2.10536 6.44672 2 6.72852 2Z" stroke="black" stroke-width="1.5" stroke-linecap="round" stroke-linejoin="round"/>
<path id="Vector_2" d="M2.83301 11.3335V10.6668C2.83301 9.25234 3.43003 7.89579 4.49274 6.89559C5.55544 5.8954 6.99678 5.3335 8.49967 5.3335C10.0026 5.3335 11.4439 5.8954 12.5066 6.89559C13.5693 7.89579 14.1663 9.25234 14.1663 10.6668V11.3335C14.1663 12.0407 13.8678 12.719 13.3365 13.2191C12.8051 13.7192 12.0845 14.0002 11.333 14.0002H5.66634C4.91489 14.0002 4.19422 13.7192 3.66287 13.2191C3.13152 12.719 2.83301 12.0407 2.83301 11.3335Z" stroke="black" stroke-width="1.5" stroke-linecap="round" stroke-linejoin="round"/>
</g>
</g>
</svg>
