<svg width="122" height="41" viewBox="0 0 122 41" fill="none" xmlns="http://www.w3.org/2000/svg">
<g id="Frame" clip-path="url(#clip0_475_459)">
<path id="Vector" d="M8.32772 12.68C9.54111 12.68 11.299 12.8564 13.6014 13.2092V15.9537C12.0969 15.4545 10.4766 15.1809 8.8319 15.1485C6.76478 15.1485 5.73121 15.5946 5.73121 16.4867C5.73121 16.8194 5.9396 17.0915 6.35639 17.3032C6.70259 17.4721 7.65717 17.8325 9.22012 18.3844C11.4721 19.1707 12.9678 19.8524 13.7073 20.4295C14.5946 21.1175 15.0383 22.0058 15.0383 23.0946C15.0383 24.6596 14.1711 25.8554 12.4368 26.682C11.0318 27.3473 9.20835 27.68 6.96645 27.68C5.0741 27.68 3.16999 27.5048 1.25412 27.1545V24.3005C3.32124 24.812 5.15309 25.0678 6.74965 25.0678C8.95122 25.0678 10.052 24.6117 10.052 23.6994C10.0576 23.5391 10.0178 23.3797 9.93527 23.2318C9.85271 23.0839 9.72925 22.9508 9.57304 22.8413C9.24365 22.5968 8.40335 22.2566 7.05216 21.8206C4.62538 21.0343 3.04563 20.3665 2.31289 19.8171C1.83882 19.453 1.46764 19.021 1.2216 18.5468C0.975559 18.0726 0.859721 17.5661 0.881025 17.0575C0.881025 15.6311 1.57511 14.5424 2.96328 13.7914C4.33464 13.0505 6.12279 12.68 8.32772 12.68ZM115.163 12.68C116.407 12.68 118.013 12.835 119.983 13.145L120.437 13.2054V15.9537C118.929 15.4535 117.305 15.1799 115.657 15.1485C113.597 15.1485 112.568 15.5946 112.571 16.4867C112.571 16.8194 112.778 17.0915 113.192 17.3032C113.524 17.467 114.482 17.8274 116.065 18.3844C118.301 19.1707 119.795 19.8524 120.548 20.4295C121.435 21.1175 121.879 22.0058 121.879 23.0946C121.879 24.6596 121.015 25.8554 119.287 26.682C117.875 27.3473 116.049 27.68 113.807 27.68C111.911 27.68 110.005 27.5048 108.089 27.1545V24.3005C110.14 24.812 111.971 25.0678 113.585 25.0678C115.786 25.0678 116.887 24.6117 116.887 23.6994C116.887 23.3592 116.733 23.0731 116.423 22.8413C116.094 22.5943 115.249 22.2541 113.887 21.8206C111.467 21.0444 109.888 20.3766 109.148 19.8171C108.673 19.4521 108.301 19.0188 108.055 18.5433C107.809 18.0677 107.694 17.5598 107.716 17.05C107.716 15.6286 108.41 14.5424 109.798 13.7914C111.17 13.0505 112.958 12.68 115.163 12.68ZM51.2635 12.9295L55.9019 22.1684L60.6512 12.9295H66.9888V27.3889H62.1083V17.152L56.7035 27.5363H53.5171L48.2132 17.152V27.3889H44.5882V12.9295H51.2635ZM23.0951 12.9295V27.3889H17.9474V12.9295H23.0951ZM41.0135 12.9295V15.5454H32.7753V18.8115H39.9497V21.1931H32.7753V24.6256H41.2303V27.3851H27.8192V12.9295H41.0135ZM84.9123 12.9295V15.5454H76.674V18.8115H83.8434V21.1931H76.674V24.6256H85.1291V27.3851H71.7129V12.9295H84.9123ZM94.4815 12.9295L100.809 22.6069V12.9295H104.434V27.3889H98.636L92.1422 17.5792V27.3889H88.5121V12.9295H94.4815Z" fill="#7C7C7C"/>
</g>
<defs>
<clipPath id="clip0_475_459">
<rect width="121" height="40" fill="white" transform="translate(0.927124 0.679993)"/>
</clipPath>
</defs>
</svg>
